An inside look into one night in the San Francisco underground rave scene.

===================================================================================

General
Format                         : AVI
Format/Info                    : Audio Video Interleave
File size                      : 702 MiB
Duration                       : 1h 20mn
Overall bit rate               : 1 221 Kbps
Movie name                     : Groove
Subject                        : Groove
Writing application            : Nandub v1.0rc2
Writing library                : Nandub build 1852/release

Video
ID                             : 0
Format                         : MPEG-4 Visual
Format profile                 : Advanced Simple@L5
Format settings, BVOP          : 2
Format settings, QPel          : Yes
Format settings, GMC           : 3 warppoints
Format settings, Matrix        : Default (H.263)
Muxing mode                    : Packed bitstream
Codec ID                       : XVID
Codec ID/Hint                  : XviD
Duration                       : 1h 20mn
Bit rate                       : 984 Kbps
Width                          : 592 pixels
Height                         : 314 pixels
Display aspect ratio           : 1.885
Frame rate                     : 25.000 fps
Color space                    : YUV
Chroma subsampling             : 4:2:0
Bit depth                      : 8 bits
Scan type                      : Progressive
Compression mode               : Lossy
Bits/(Pixel*Frame)             : 0.212
Stream size                    : 566 MiB (81%)
Writing library                : XviD 1.0.1 (UTC 2004-06-05)

Audio
ID                             : 1
Format                         : MPEG Audio
Format version                 : Version 1
Format profile                 : Layer 3
Mode                           : Joint stereo
Codec ID                       : 55
Codec ID/Hint                  : MP3
Duration                       : 1h 20mn
Bit rate mode                  : Constant
Bit rate                       : 224 Kbps
Channel(s)                     : 2 channels
Sampling rate                  : 48.0 KHz
Compression mode               : Lossy
Stream size                    : 129 MiB (18%)
Alignment                      : Aligned on interleaves
Interleave, duration           : 24 ms (0.60 video frame)
Interleave, preload duration   : 480 ms
Writing library                : LAME3.90.3
